<?xml version="1.0" standalone="no"?>
<svg xmlns:xlink="http://www.w3.org/1999/xlink" id="wave" style="transform:rotate(180deg); transition: 0.3s" viewBox="0 0 1440 190" version="1.1" xmlns="http://www.w3.org/2000/svg"><defs><linearGradient id="sw-gradient-0" x1="0" x2="0" y1="1" y2="0"><stop stop-color="rgba(44, 101, 200, 1)" offset="0%"/><stop stop-color="rgba(112, 44, 200, 1)" offset="100%"/></linearGradient></defs><path style="transform:translate(0, 0px); opacity:1" fill="url(#sw-gradient-0)" d="M0,152L60,129.8C120,108,240,63,360,60.2C480,57,600,95,720,107.7C840,120,960,108,1080,91.8C1200,76,1320,57,1440,66.5C1560,76,1680,114,1800,129.8C1920,146,2040,139,2160,139.3C2280,139,2400,146,2520,136.2C2640,127,2760,101,2880,104.5C3000,108,3120,139,3240,136.2C3360,133,3480,95,3600,82.3C3720,70,3840,82,3960,95C4080,108,4200,120,4320,129.8C4440,139,4560,146,4680,129.8C4800,114,4920,76,5040,79.2C5160,82,5280,127,5400,129.8C5520,133,5640,95,5760,82.3C5880,70,6000,82,6120,76C6240,70,6360,44,6480,53.8C6600,63,6720,108,6840,117.2C6960,127,7080,101,7200,88.7C7320,76,7440,76,7560,82.3C7680,89,7800,101,7920,104.5C8040,108,8160,101,8280,82.3C8400,63,8520,32,8580,15.8L8640,0L8640,190L8580,190C8520,190,8400,190,8280,190C8160,190,8040,190,7920,190C7800,190,7680,190,7560,190C7440,190,7320,190,7200,190C7080,190,6960,190,6840,190C6720,190,6600,190,6480,190C6360,190,6240,190,6120,190C6000,190,5880,190,5760,190C5640,190,5520,190,5400,190C5280,190,5160,190,5040,190C4920,190,4800,190,4680,190C4560,190,4440,190,4320,190C4200,190,4080,190,3960,190C3840,190,3720,190,3600,190C3480,190,3360,190,3240,190C3120,190,3000,190,2880,190C2760,190,2640,190,2520,190C2400,190,2280,190,2160,190C2040,190,1920,190,1800,190C1680,190,1560,190,1440,190C1320,190,1200,190,1080,190C960,190,840,190,720,190C600,190,480,190,360,190C240,190,120,190,60,190L0,190Z"/></svg>